<svg xmlns="http://www.w3.org/2000/svg" xmlns:xlink="http://www.w3.org/1999/xlink" width="1740" height="776.43"><rect width="1740" height="776.43" rx="5" ry="5" class="a"/><svg y="0%" x="0%"><circle cx="20" cy="20" r="6" fill="#ff5f58"/><circle cx="40" cy="20" r="6" fill="#ffbd2e"/><circle cx="60" cy="20" r="6" fill="#18c132"/></svg><svg height="716.43" viewBox="0 0 170 71.643" width="1700" x="15" xmlns="http://www.w3.org/2000/svg" xmlns:xlink="http://www.w3.org/1999/xlink" y="50"><style>@keyframes k{0%{transform:translateX(0)}.1%{transform:translateX(-170px)}.2%{transform:translateX(-340px)}17.5%{transform:translateX(-510px)}24.1%{transform:translateX(-680px)}27.8%{transform:translateX(-850px)}30%{transform:translateX(-1020px)}34.6%{transform:translateX(-1190px)}39.4%{transform:translateX(-1360px)}41.9%{transform:translateX(-1530px)}52%{transform:translateX(-1700px)}59.1%{transform:translateX(-1870px)}74.6%{transform:translateX(-2040px)}74.9%{transform:translateX(-2380px)}75.1%{transform:translateX(-2550px)}75.2%{transform:translateX(-2890px)}75.4%{transform:translateX(-3400px)}75.6%{transform:translateX(-3740px)}75.7%{transform:translateX(-5100px)}to{transform:translateX(-5270px)}}.a{fill:#282d35}.f,.g,.h{fill:#b9c0cb;white-space:pre}.g,.h{fill:#dbab79}.h{fill:#a8cc8c}</style><g font-family="Monaco,Consolas,Menlo,'Bitstream Vera Sans Mono','Powerline Symbols',monospace" font-size="1.67"><defs><symbol id="1"><text y="1.67" class="f">root@vbox:/home/user/git_repo/Unix-Automation-Toolkit/bash/HEALTH-MONITOR#</text></symbol><symbol id="2"><text y="1.67" class="f">root@vbox:/home/user/git_repo/Unix-Automation-Toolkit/bash/HEALTH-MONITOR#</text><text x="75.15" y="1.67" class="f">sudo</text></symbol><symbol id="3"><text y="1.67" class="f">root@vbox:/home/user/git_repo/Unix-Automation-Toolkit/bash/HEALTH-MONITOR#</text><text x="75.15" y="1.67" class="f">sudo</text><text x="80.16" y="1.67" class="f">./health_check.sh</text></symbol><symbol id="4"><text y="1.67" class="g">===</text><text x="4.008" y="1.67" class="g">System</text><text x="11.022" y="1.67" class="g">Health</text><text x="18.036" y="1.67" class="g">Report</text><text x="25.05" y="1.67" class="g">-</text><text x="27.054" y="1.67" class="g">Wed</text><text x="31.062" y="1.67" class="g">Feb</text><text x="35.07" y="1.67" class="g">25</text><text x="38.076" y="1.67" class="g">08:25:20</text><text x="47.094" y="1.67" class="g">AM</text><text x="50.1" y="1.67" class="g">EST</text><text x="54.108" y="1.67" class="g">2026</text><text x="59.118" y="1.67" class="g">===</text></symbol><symbol id="5"><text y="1.67" class="f">CPU</text><text x="4.008" y="1.67" class="f">Load</text><text x="9.018" y="1.67" class="f">(1</text><text x="12.024" y="1.67" class="f">min):</text><text x="18.036" y="1.67" class="f">0.02</text><text x="23.046" y="1.67" class="f">[</text><text x="24.048" y="1.67" class="h">OK</text><text x="26.052" y="1.67" class="f">]</text></symbol><symbol id="6"><text y="1.67" class="f">Memory</text><text x="7.014" y="1.67" class="f">Usage:</text><text x="14.028" y="1.67" class="f">66.00%</text><text x="21.042" y="1.67" class="f">[</text><text x="22.044" y="1.67" class="h">OK</text><text x="24.048" y="1.67" class="f">]</text></symbol><symbol id="7"><text y="1.67" class="f">Disk</text><text x="5.01" y="1.67" class="f">Usage</text><text x="11.022" y="1.67" class="f">(/):</text><text x="16.032" y="1.67" class="f">72%</text><text x="20.04" y="1.67" class="f">[</text><text x="21.042" y="1.67" class="h">OK</text><text x="23.046" y="1.67" class="f">]</text></symbol><symbol id="8"><text y="1.67" class="g">3</text><text x="2.004" y="1.67" class="g">process</text><text x="10.02" y="1.67" class="g">that</text><text x="15.03" y="1.67" class="g">consume</text><text x="23.046" y="1.67" class="g">the</text><text x="27.054" y="1.67" class="g">most</text><text x="32.064" y="1.67" class="g">resources:</text></symbol><symbol id="9"><text y="1.67" class="f">USER</text><text x="13.026" y="1.67" class="f">PID</text><text x="17.034" y="1.67" class="f">%CPU</text><text x="22.044" y="1.67" class="f">%MEM</text></symbol><symbol id="10"><text y="1.67" class="f">user</text><text x="13.026" y="1.67" class="f">571</text><text x="18.036" y="1.67" class="f">0.4</text><text x="22.044" y="1.67" class="f">22.3</text></symbol><symbol id="11"><text y="1.67" class="f">user</text><text x="13.026" y="1.67" class="f">552</text><text x="18.036" y="1.67" class="f">0.1</text><text x="23.046" y="1.67" class="f">5.8</text></symbol><symbol id="12"><text y="1.67" class="f">user</text><text x="13.026" y="1.67" class="f">538</text><text x="18.036" y="1.67" class="f">0.1</text><text x="23.046" y="1.67" class="f">5.6</text></symbol><symbol id="13"><text y="1.67" class="g">Log</text><text x="4.008" y="1.67" class="g">file:</text><text x="10.02" y="1.67" class="g">/home/user/git_repo/Unix-Automation-Toolkit/bash/HEALTH-MONITOR/system_stats.log</text></symbol><symbol id="14"><text y="1.67" class="g">--------------------------------------</text></symbol><symbol id="a"><path fill="transparent" d="M0 0h170v33H0z"/></symbol><symbol id="b"><path fill="#6f7683" d="M0 0h1.102v2.171H0z"/></symbol></defs><path class="a" d="M0 0h170v71.643H0z"/><g style="animation-duration:7.788975s;animation-iteration-count:infinite;animation-name:k;animation-timing-function:steps(1,end)"><svg width="5440"><svg><use xlink:href="#a"/><use xlink:href="#b" x="-.004"/></svg><svg x="170"><use xlink:href="#a"/><use xlink:href="#b" x="-.004"/></svg><svg x="340"><use xlink:href="#a"/><use xlink:href="#b" x="74.996"/><use xlink:href="#1"/></svg><svg x="510"><use xlink:href="#a"/><use xlink:href="#b" x="75.996"/><text y="1.67" class="f">root@vbox:/home/user/git_repo/Unix-Automation-Toolkit/bash/HEALTH-MONITOR#</text><text x="75.15" y="1.67" class="f">s</text></svg><svg x="680"><use xlink:href="#a"/><use xlink:href="#b" x="76.996"/><text y="1.67" class="f">root@vbox:/home/user/git_repo/Unix-Automation-Toolkit/bash/HEALTH-MONITOR#</text><text x="75.15" y="1.67" class="f">su</text></svg><svg x="850"><use xlink:href="#a"/><use xlink:href="#b" x="77.996"/><text y="1.67" class="f">root@vbox:/home/user/git_repo/Unix-Automation-Toolkit/bash/HEALTH-MONITOR#</text><text x="75.15" y="1.67" class="f">sud</text></svg><svg x="1020"><use xlink:href="#a"/><use xlink:href="#b" x="78.996"/><use xlink:href="#2"/></svg><svg x="1190"><use xlink:href="#a"/><use xlink:href="#b" x="79.996"/><use xlink:href="#2"/></svg><svg x="1360"><use xlink:href="#a"/><use xlink:href="#b" x="80.996"/><text y="1.67" class="f">root@vbox:/home/user/git_repo/Unix-Automation-Toolkit/bash/HEALTH-MONITOR#</text><text x="75.15" y="1.67" class="f">sudo</text><text x="80.16" y="1.67" class="f">.</text></svg><svg x="1530"><use xlink:href="#a"/><use xlink:href="#b" x="81.996"/><text y="1.67" class="f">root@vbox:/home/user/git_repo/Unix-Automation-Toolkit/bash/HEALTH-MONITOR#</text><text x="75.15" y="1.67" class="f">sudo</text><text x="80.16" y="1.67" class="f">./</text></svg><svg x="1700"><use xlink:href="#a"/><use xlink:href="#b" x="82.996"/><text y="1.67" class="f">root@vbox:/home/user/git_repo/Unix-Automation-Toolkit/bash/HEALTH-MONITOR#</text><text x="75.15" y="1.67" class="f">sudo</text><text x="80.16" y="1.67" class="f">./h</text></svg><svg x="1870"><use xlink:href="#a"/><use xlink:href="#b" x="97.996"/><use xlink:href="#3"/></svg><svg x="2040"><use xlink:href="#a"/><use xlink:href="#b" x="-.004" y="2.146"/><use xlink:href="#3"/></svg><svg x="2210"><use xlink:href="#a"/><use xlink:href="#b" x="61.996" y="2.146"/><use xlink:href="#3"/><use xlink:href="#4" y="2.171"/></svg><svg x="2380"><use xlink:href="#a"/><use xlink:href="#b" x="-.004" y="4.317"/><use xlink:href="#3"/><use xlink:href="#4" y="2.171"/></svg><svg x="2550"><use xlink:href="#a"/><use xlink:href="#b" x="21.996" y="4.317"/><use xlink:href="#3"/><use xlink:href="#4" y="2.171"/><text y="6.012" class="f">CPU</text><text x="4.008" y="6.012" class="f">Load</text><text x="9.018" y="6.012" class="f">(1</text><text x="12.024" y="6.012" class="f">min):</text><text x="18.036" y="6.012" class="f">0.02</text></svg><svg x="2720"><use xlink:href="#a"/><use xlink:href="#b" x="26.996" y="4.317"/><use xlink:href="#3"/><use xlink:href="#4" y="2.171"/><use xlink:href="#5" y="4.342"/></svg><svg x="2890"><use xlink:href="#a"/><use xlink:href="#b" x="-.004" y="6.488"/><use xlink:href="#3"/><use xlink:href="#4" y="2.171"/><use xlink:href="#5" y="4.342"/></svg><svg x="3060"><use xlink:href="#a"/><use xlink:href="#b" x="20.996" y="6.488"/><use xlink:href="#3"/><use xlink:href="#4" y="2.171"/><use xlink:href="#5" y="4.342"/><text y="8.183" class="f">Memory</text><text x="7.014" y="8.183" class="f">Usage:</text><text x="14.028" y="8.183" class="f">66.00%</text></svg><svg x="3230"><use xlink:href="#a"/><use xlink:href="#b" x="24.996" y="6.488"/><use xlink:href="#3"/><use xlink:href="#4" y="2.171"/><use xlink:href="#5" y="4.342"/><use xlink:href="#6" y="6.513"/></svg><svg x="3400"><use xlink:href="#a"/><use xlink:href="#b" x="-.004" y="8.659"/><use xlink:href="#3"/><use xlink:href="#4" y="2.171"/><use xlink:href="#5" y="4.342"/><use xlink:href="#6" y="6.513"/></svg><svg x="3570"><use xlink:href="#a"/><use xlink:href="#b" x="23.996" y="8.659"/><use xlink:href="#3"/><use xlink:href="#4" y="2.171"/><use xlink:href="#5" y="4.342"/><use xlink:href="#6" y="6.513"/><use xlink:href="#7" y="8.684"/></svg><svg x="3740"><use xlink:href="#a"/><use xlink:href="#b" x="-.004" y="15.172"/><use xlink:href="#3"/><use xlink:href="#4" y="2.171"/><use xlink:href="#5" y="4.342"/><use xlink:href="#6" y="6.513"/><use xlink:href="#7" y="8.684"/><use xlink:href="#8" y="13.026"/></svg><svg x="3910"><use xlink:href="#a"/><use xlink:href="#b" x="25.996" y="15.172"/><use xlink:href="#3"/><use xlink:href="#4" y="2.171"/><use xlink:href="#5" y="4.342"/><use xlink:href="#6" y="6.513"/><use xlink:href="#7" y="8.684"/><use xlink:href="#8" y="13.026"/><use xlink:href="#9" y="15.197"/></svg><svg x="4080"><use xlink:href="#a"/><use xlink:href="#b" x="-.004" y="21.685"/><use xlink:href="#3"/><use xlink:href="#4" y="2.171"/><use xlink:href="#5" y="4.342"/><use xlink:href="#6" y="6.513"/><use xlink:href="#7" y="8.684"/><use xlink:href="#8" y="13.026"/><use xlink:href="#9" y="15.197"/><use xlink:href="#10" y="17.368"/><use xlink:href="#11" y="19.539"/></svg><svg x="4250"><use xlink:href="#a"/><use xlink:href="#b" x="-.004" y="23.856"/><use xlink:href="#3"/><use xlink:href="#4" y="2.171"/><use xlink:href="#5" y="4.342"/><use xlink:href="#6" y="6.513"/><use xlink:href="#7" y="8.684"/><use xlink:href="#8" y="13.026"/><use xlink:href="#9" y="15.197"/><use xlink:href="#10" y="17.368"/><use xlink:href="#11" y="19.539"/><use xlink:href="#12" y="21.71"/></svg><svg x="4420"><use xlink:href="#a"/><use xlink:href="#b" x="89.996" y="23.856"/><use xlink:href="#3"/><use xlink:href="#4" y="2.171"/><use xlink:href="#5" y="4.342"/><use xlink:href="#6" y="6.513"/><use xlink:href="#7" y="8.684"/><use xlink:href="#8" y="13.026"/><use xlink:href="#9" y="15.197"/><use xlink:href="#10" y="17.368"/><use xlink:href="#11" y="19.539"/><use xlink:href="#12" y="21.71"/><use xlink:href="#13" y="23.881"/></svg><svg x="4590"><use xlink:href="#a"/><use xlink:href="#b" x="-.004" y="26.027"/><use xlink:href="#3"/><use xlink:href="#4" y="2.171"/><use xlink:href="#5" y="4.342"/><use xlink:href="#6" y="6.513"/><use xlink:href="#7" y="8.684"/><use xlink:href="#8" y="13.026"/><use xlink:href="#9" y="15.197"/><use xlink:href="#10" y="17.368"/><use xlink:href="#11" y="19.539"/><use xlink:href="#12" y="21.71"/><use xlink:href="#13" y="23.881"/></svg><svg x="4760"><use xlink:href="#a"/><use xlink:href="#b" x="-.004" y="28.198"/><use xlink:href="#3"/><use xlink:href="#4" y="2.171"/><use xlink:href="#5" y="4.342"/><use xlink:href="#6" y="6.513"/><use xlink:href="#7" y="8.684"/><use xlink:href="#8" y="13.026"/><use xlink:href="#9" y="15.197"/><use xlink:href="#10" y="17.368"/><use xlink:href="#11" y="19.539"/><use xlink:href="#12" y="21.71"/><use xlink:href="#13" y="23.881"/><use xlink:href="#14" y="26.052"/></svg><svg x="4930"><use xlink:href="#a"/><use xlink:href="#b" x="-.004" y="28.198"/><use xlink:href="#3"/><use xlink:href="#4" y="2.171"/><use xlink:href="#5" y="4.342"/><use xlink:href="#6" y="6.513"/><use xlink:href="#7" y="8.684"/><use xlink:href="#8" y="13.026"/><use xlink:href="#9" y="15.197"/><use xlink:href="#10" y="17.368"/><use xlink:href="#11" y="19.539"/><use xlink:href="#12" y="21.71"/><use xlink:href="#13" y="23.881"/><use xlink:href="#14" y="26.052"/></svg><svg x="5100"><use xlink:href="#a"/><use xlink:href="#b" x="74.996" y="28.198"/><use xlink:href="#3"/><use xlink:href="#4" y="2.171"/><use xlink:href="#5" y="4.342"/><use xlink:href="#6" y="6.513"/><use xlink:href="#7" y="8.684"/><use xlink:href="#8" y="13.026"/><use xlink:href="#9" y="15.197"/><use xlink:href="#10" y="17.368"/><use xlink:href="#11" y="19.539"/><use xlink:href="#12" y="21.71"/><use xlink:href="#13" y="23.881"/><use xlink:href="#14" y="26.052"/><use xlink:href="#1" y="28.223"/></svg><svg x="5270"><use xlink:href="#a"/><use xlink:href="#b" x="-.004" y="32.54"/><use xlink:href="#3"/><use xlink:href="#4" y="2.171"/><use xlink:href="#5" y="4.342"/><use xlink:href="#6" y="6.513"/><use xlink:href="#7" y="8.684"/><use xlink:href="#8" y="13.026"/><use xlink:href="#9" y="15.197"/><use xlink:href="#10" y="17.368"/><use xlink:href="#11" y="19.539"/><use xlink:href="#12" y="21.71"/><use xlink:href="#13" y="23.881"/><use xlink:href="#14" y="26.052"/><use xlink:href="#1" y="28.223"/><text y="32.064" class="f">exit</text></svg></svg></g></g></svg></svg>